<?xml version="1.0" encoding="iso-8859-1"?>
<!-- Generator: Adobe Illustrator 19.0.0, SVG Export Plug-In . SVG Version: 6.00 Build 0)  -->
<svg version="1.1" id="Layer_1" xmlns="http://www.w3.org/2000/svg" xmlns:xlink="http://www.w3.org/1999/xlink" x="0px" y="0px" fill="#287aed"
	 viewBox="0 0 490 490" style="enable-background:new 0 0 490 490;" xml:space="preserve">
<g>
	<g>
		<g>
			<path d="M480,232.5H295v-10h-15v-20h70c5.523,0,10-4.477,10-10v-160c0-5.523-4.477-10-10-10H140c-5.523,0-10,4.477-10,10v160
				c0,5.523,4.477,10,10,10h70v20h-15v10H10c-5.523,0-10,4.477-10,10v35c0,5.523,4.477,10,10,10h15v180h20v-180h400v180h20v-180h15
				c5.523,0,10-4.477,10-10v-35C490,236.977,485.523,232.5,480,232.5z M150,42.5h190v95H150V42.5z M150,182.5v-25h190v25H150z
				 M260,202.5v20h-30v-20H260z M470,267.5H20v-15h450V267.5z"/>
			<polygon points="55,317.5 65,317.5 65,467.5 85,467.5 85,317.5 405,317.5 405,467.5 425,467.5 425,317.5 435,317.5 435,297.5 
				55,297.5 			"/>
		</g>
	</g>
</g>
<g>
</g>
<g>
</g>
<g>
</g>
<g>
</g>
<g>
</g>
<g>
</g>
<g>
</g>
<g>
</g>
<g>
</g>
<g>
</g>
<g>
</g>
<g>
</g>
<g>
</g>
<g>
</g>
<g>
</g>
</svg>
